<svg width="871" height="545" viewBox="0 0 871 545" fill="none" xmlns="http://www.w3.org/2000/svg">
<g clip-path="url(#clip0)">
<path d="M213.062 342.191H141.628C137.54 342.191 134.227 345.508 134.227 349.599V369.142C134.227 373.233 137.54 376.55 141.628 376.55H213.062C217.149 376.55 220.463 373.233 220.463 369.142V349.599C220.463 345.508 217.149 342.191 213.062 342.191Z" fill="#4FA3E3"/>
<path d="M299.297 342.191H227.864C223.776 342.191 220.463 345.508 220.463 349.599V369.142C220.463 373.233 223.776 376.55 227.864 376.55H299.297C303.385 376.55 306.699 373.233 306.699 369.142V349.599C306.699 345.508 303.385 342.191 299.297 342.191Z" fill="#4FA3E3"/>
<path opacity="0.1" d="M299.297 342.191H227.864C223.776 342.191 220.463 345.508 220.463 349.599V369.142C220.463 373.233 223.776 376.55 227.864 376.55H299.297C303.385 376.55 306.699 373.233 306.699 369.142V349.599C306.699 345.508 303.385 342.191 299.297 342.191Z" fill="black"/>
<path d="M385.533 342.191H314.1C310.012 342.191 306.699 345.508 306.699 349.599V369.142C306.699 373.233 310.012 376.55 314.1 376.55H385.533C389.621 376.55 392.935 373.233 392.935 369.142V349.599C392.935 345.508 389.621 342.191 385.533 342.191Z" fill="#4FA3E3"/>
<path d="M471.769 342.191H400.336C396.248 342.191 392.935 345.508 392.935 349.599V369.142C392.935 373.233 396.248 376.55 400.336 376.55H471.769C475.857 376.55 479.171 373.233 479.171 369.142V349.599C479.171 345.508 475.857 342.191 471.769 342.191Z" fill="#4FA3E3"/>
<path opacity="0.1" d="M471.769 342.191H400.336C396.248 342.191 392.935 345.508 392.935 349.599V369.142C392.935 373.233 396.248 376.55 400.336 376.55H471.769C475.857 376.55 479.171 373.233 479.171 369.142V349.599C479.171 345.508 475.857 342.191 471.769 342.191Z" fill="black"/>
<path d="M558.005 342.191H486.572C482.484 342.191 479.171 345.508 479.171 349.599V369.142C479.171 373.233 482.484 376.55 486.572 376.55H558.005C562.093 376.55 565.407 373.233 565.407 369.142V349.599C565.407 345.508 562.093 342.191 558.005 342.191Z" fill="#4FA3E3"/>
<path d="M644.241 342.191H572.808C568.72 342.191 565.406 345.508 565.406 349.599V369.142C565.406 373.233 568.72 376.55 572.808 376.55H644.241C648.329 376.55 651.643 373.233 651.643 369.142V349.599C651.643 345.508 648.329 342.191 644.241 342.191Z" fill="#4FA3E3"/>
<path opacity="0.1" d="M644.241 342.191H572.808C568.72 342.191 565.406 345.508 565.406 349.599V369.142C565.406 373.233 568.72 376.55 572.808 376.55H644.241C648.329 376.55 651.643 373.233 651.643 369.142V349.599C651.643 345.508 648.329 342.191 644.241 342.191Z" fill="black"/>
<path d="M572.808 342.191H644.241C648.329 342.191 651.643 338.875 651.643 334.783V315.241C651.643 311.15 648.329 307.833 644.241 307.833H572.808C568.72 307.833 565.407 311.15 565.407 315.241V334.783C565.407 338.875 568.72 342.191 572.808 342.191Z" fill="#4FA3E3"/>
<path d="M486.572 342.191H558.005C562.093 342.191 565.406 338.875 565.406 334.783V315.241C565.406 311.15 562.093 307.833 558.005 307.833H486.572C482.484 307.833 479.171 311.15 479.171 315.241V334.783C479.171 338.875 482.484 342.191 486.572 342.191Z" fill="#4FA3E3"/>
<path opacity="0.1" d="M486.572 342.191H558.005C562.093 342.191 565.406 338.875 565.406 334.783V315.241C565.406 311.15 562.093 307.833 558.005 307.833H486.572C482.484 307.833 479.171 311.15 479.171 315.241V334.783C479.171 338.875 482.484 342.191 486.572 342.191Z" fill="black"/>
<path d="M400.336 342.191H471.769C475.857 342.191 479.171 338.875 479.171 334.783V315.241C479.171 311.15 475.857 307.833 471.769 307.833H400.336C396.248 307.833 392.935 311.15 392.935 315.241V334.783C392.935 338.875 396.248 342.191 400.336 342.191Z" fill="#4FA3E3"/>
<path d="M314.1 342.191H385.533C389.621 342.191 392.935 338.875 392.935 334.783V315.241C392.935 311.15 389.621 307.833 385.533 307.833H314.1C310.012 307.833 306.699 311.15 306.699 315.241V334.783C306.699 338.875 310.012 342.191 314.1 342.191Z" fill="#4FA3E3"/>
<path opacity="0.1" d="M314.1 342.191H385.533C389.621 342.191 392.935 338.875 392.935 334.783V315.241C392.935 311.15 389.621 307.833 385.533 307.833H314.1C310.012 307.833 306.699 311.15 306.699 315.241V334.783C306.699 338.875 310.012 342.191 314.1 342.191Z" fill="black"/>
<path d="M227.864 342.191H299.298C303.385 342.191 306.699 338.875 306.699 334.783V315.241C306.699 311.15 303.385 307.833 299.298 307.833H227.864C223.776 307.833 220.463 311.15 220.463 315.241V334.783C220.463 338.875 223.776 342.191 227.864 342.191Z" fill="#4FA3E3"/>
<path d="M141.628 342.191H213.061C217.149 342.191 220.463 338.875 220.463 334.783V315.241C220.463 311.15 217.149 307.833 213.061 307.833H141.628C137.54 307.833 134.227 311.15 134.227 315.241V334.783C134.227 338.875 137.54 342.191 141.628 342.191Z" fill="#4FA3E3"/>
<path opacity="0.1" d="M141.628 342.191H213.061C217.149 342.191 220.463 338.875 220.463 334.783V315.241C220.463 311.15 217.149 307.833 213.061 307.833H141.628C137.54 307.833 134.227 311.15 134.227 315.241V334.783C134.227 338.875 137.54 342.191 141.628 342.191Z" fill="black"/>
<path d="M213.062 273.475H141.628C137.54 273.475 134.227 276.792 134.227 280.883V300.425C134.227 304.517 137.54 307.833 141.628 307.833H213.062C217.149 307.833 220.463 304.517 220.463 300.425V280.883C220.463 276.792 217.149 273.475 213.062 273.475Z" fill="#4FA3E3"/>
<path d="M299.297 273.475H227.864C223.776 273.475 220.463 276.792 220.463 280.883V300.425C220.463 304.517 223.776 307.833 227.864 307.833H299.297C303.385 307.833 306.699 304.517 306.699 300.425V280.883C306.699 276.792 303.385 273.475 299.297 273.475Z" fill="#4FA3E3"/>
<path opacity="0.1" d="M299.297 273.475H227.864C223.776 273.475 220.463 276.792 220.463 280.883V300.425C220.463 304.517 223.776 307.833 227.864 307.833H299.297C303.385 307.833 306.699 304.517 306.699 300.425V280.883C306.699 276.792 303.385 273.475 299.297 273.475Z" fill="black"/>
<path d="M385.533 273.475H314.1C310.012 273.475 306.699 276.792 306.699 280.883V300.425C306.699 304.517 310.012 307.833 314.1 307.833H385.533C389.621 307.833 392.935 304.517 392.935 300.425V280.883C392.935 276.792 389.621 273.475 385.533 273.475Z" fill="#4FA3E3"/>
<path d="M471.769 273.475H400.336C396.248 273.475 392.935 276.792 392.935 280.883V300.425C392.935 304.517 396.248 307.833 400.336 307.833H471.769C475.857 307.833 479.171 304.517 479.171 300.425V280.883C479.171 276.792 475.857 273.475 471.769 273.475Z" fill="#4FA3E3"/>
<path opacity="0.1" d="M471.769 273.475H400.336C396.248 273.475 392.935 276.792 392.935 280.883V300.425C392.935 304.517 396.248 307.833 400.336 307.833H471.769C475.857 307.833 479.171 304.517 479.171 300.425V280.883C479.171 276.792 475.857 273.475 471.769 273.475Z" fill="black"/>
<path d="M558.005 273.475H486.572C482.484 273.475 479.171 276.792 479.171 280.883V300.425C479.171 304.517 482.484 307.833 486.572 307.833H558.005C562.093 307.833 565.407 304.517 565.407 300.425V280.883C565.407 276.792 562.093 273.475 558.005 273.475Z" fill="#4FA3E3"/>
<path d="M644.241 273.475H572.808C568.72 273.475 565.406 276.792 565.406 280.883V300.425C565.406 304.517 568.72 307.833 572.808 307.833H644.241C648.329 307.833 651.643 304.517 651.643 300.425V280.883C651.643 276.792 648.329 273.475 644.241 273.475Z" fill="#4FA3E3"/>
<path opacity="0.1" d="M644.241 273.475H572.808C568.72 273.475 565.406 276.792 565.406 280.883V300.425C565.406 304.517 568.72 307.833 572.808 307.833H644.241C648.329 307.833 651.643 304.517 651.643 300.425V280.883C651.643 276.792 648.329 273.475 644.241 273.475Z" fill="black"/>
<path d="M572.808 273.475H644.241C648.329 273.475 651.643 270.158 651.643 266.067V246.525C651.643 242.434 648.329 239.117 644.241 239.117H572.808C568.72 239.117 565.407 242.434 565.407 246.525V266.067C565.407 270.158 568.72 273.475 572.808 273.475Z" fill="#4FA3E3"/>
<path d="M486.572 273.475H558.005C562.093 273.475 565.406 270.158 565.406 266.067V246.525C565.406 242.434 562.093 239.117 558.005 239.117H486.572C482.484 239.117 479.171 242.434 479.171 246.525V266.067C479.171 270.158 482.484 273.475 486.572 273.475Z" fill="#4FA3E3"/>
<path opacity="0.1" d="M486.572 273.475H558.005C562.093 273.475 565.406 270.158 565.406 266.067V246.525C565.406 242.434 562.093 239.117 558.005 239.117H486.572C482.484 239.117 479.171 242.434 479.171 246.525V266.067C479.171 270.158 482.484 273.475 486.572 273.475Z" fill="black"/>
<path d="M400.336 273.475H471.769C475.857 273.475 479.171 270.158 479.171 266.067V246.525C479.171 242.434 475.857 239.117 471.769 239.117H400.336C396.248 239.117 392.935 242.434 392.935 246.525V266.067C392.935 270.158 396.248 273.475 400.336 273.475Z" fill="#4FA3E3"/>
<path d="M314.1 273.475H385.533C389.621 273.475 392.935 270.158 392.935 266.067V246.525C392.935 242.434 389.621 239.117 385.533 239.117H314.1C310.012 239.117 306.699 242.434 306.699 246.525V266.067C306.699 270.158 310.012 273.475 314.1 273.475Z" fill="#4FA3E3"/>
<path opacity="0.1" d="M314.1 273.475H385.533C389.621 273.475 392.935 270.158 392.935 266.067V246.525C392.935 242.434 389.621 239.117 385.533 239.117H314.1C310.012 239.117 306.699 242.434 306.699 246.525V266.067C306.699 270.158 310.012 273.475 314.1 273.475Z" fill="black"/>
<path d="M227.864 273.475H299.298C303.385 273.475 306.699 270.158 306.699 266.067V246.525C306.699 242.434 303.385 239.117 299.298 239.117H227.864C223.776 239.117 220.463 242.434 220.463 246.525V266.067C220.463 270.158 223.776 273.475 227.864 273.475Z" fill="#4FA3E3"/>
<path d="M141.628 273.475H213.061C217.149 273.475 220.463 270.158 220.463 266.067V246.525C220.463 242.434 217.149 239.117 213.061 239.117H141.628C137.54 239.117 134.227 242.434 134.227 246.525V266.067C134.227 270.158 137.54 273.475 141.628 273.475Z" fill="#4FA3E3"/>
<path opacity="0.1" d="M141.628 273.475H213.061C217.149 273.475 220.463 270.158 220.463 266.067V246.525C220.463 242.434 217.149 239.117 213.061 239.117H141.628C137.54 239.117 134.227 242.434 134.227 246.525V266.067C134.227 270.158 137.54 273.475 141.628 273.475Z" fill="black"/>
<path d="M213.062 206.435H141.628C137.54 206.435 134.227 209.751 134.227 213.843V233.385C134.227 237.476 137.54 240.793 141.628 240.793H213.062C217.149 240.793 220.463 237.476 220.463 233.385V213.843C220.463 209.751 217.149 206.435 213.062 206.435Z" fill="#4FA3E3"/>
<path d="M299.297 206.435H227.864C223.776 206.435 220.463 209.751 220.463 213.843V233.385C220.463 237.476 223.776 240.793 227.864 240.793H299.297C303.385 240.793 306.699 237.476 306.699 233.385V213.843C306.699 209.751 303.385 206.435 299.297 206.435Z" fill="#4FA3E3"/>
<path opacity="0.1" d="M299.297 206.435H227.864C223.776 206.435 220.463 209.751 220.463 213.843V233.385C220.463 237.476 223.776 240.793 227.864 240.793H299.297C303.385 240.793 306.699 237.476 306.699 233.385V213.843C306.699 209.751 303.385 206.435 299.297 206.435Z" fill="black"/>
<path d="M385.533 206.435H314.1C310.012 206.435 306.699 209.751 306.699 213.843V233.385C306.699 237.476 310.012 240.793 314.1 240.793H385.533C389.621 240.793 392.935 237.476 392.935 233.385V213.843C392.935 209.751 389.621 206.435 385.533 206.435Z" fill="#4FA3E3"/>
<path d="M471.769 206.435H400.336C396.248 206.435 392.935 209.751 392.935 213.843V233.385C392.935 237.476 396.248 240.793 400.336 240.793H471.769C475.857 240.793 479.171 237.476 479.171 233.385V213.843C479.171 209.751 475.857 206.435 471.769 206.435Z" fill="#4FA3E3"/>
<path opacity="0.1" d="M471.769 206.435H400.336C396.248 206.435 392.935 209.751 392.935 213.843V233.385C392.935 237.476 396.248 240.793 400.336 240.793H471.769C475.857 240.793 479.171 237.476 479.171 233.385V213.843C479.171 209.751 475.857 206.435 471.769 206.435Z" fill="black"/>
<path d="M558.005 206.435H486.572C482.484 206.435 479.171 209.751 479.171 213.843V233.385C479.171 237.476 482.484 240.793 486.572 240.793H558.005C562.093 240.793 565.407 237.476 565.407 233.385V213.843C565.407 209.751 562.093 206.435 558.005 206.435Z" fill="#4FA3E3"/>
<path d="M644.241 206.435H572.808C568.72 206.435 565.406 209.751 565.406 213.843V233.385C565.406 237.476 568.72 240.793 572.808 240.793H644.241C648.329 240.793 651.643 237.476 651.643 233.385V213.843C651.643 209.751 648.329 206.435 644.241 206.435Z" fill="#4FA3E3"/>
<path opacity="0.1" d="M644.241 206.435H572.808C568.72 206.435 565.406 209.751 565.406 213.843V233.385C565.406 237.476 568.72 240.793 572.808 240.793H644.241C648.329 240.793 651.643 237.476 651.643 233.385V213.843C651.643 209.751 648.329 206.435 644.241 206.435Z" fill="black"/>
<path d="M572.808 206.435H644.241C648.329 206.435 651.643 203.118 651.643 199.027V179.484C651.643 175.393 648.329 172.076 644.241 172.076H572.808C568.72 172.076 565.407 175.393 565.407 179.484V199.027C565.407 203.118 568.72 206.435 572.808 206.435Z" fill="#4FA3E3"/>
<path d="M486.572 206.435H558.005C562.093 206.435 565.406 203.118 565.406 199.027V179.484C565.406 175.393 562.093 172.076 558.005 172.076H486.572C482.484 172.076 479.171 175.393 479.171 179.484V199.027C479.171 203.118 482.484 206.435 486.572 206.435Z" fill="#4FA3E3"/>
<path opacity="0.1" d="M486.572 206.435H558.005C562.093 206.435 565.406 203.118 565.406 199.027V179.484C565.406 175.393 562.093 172.076 558.005 172.076H486.572C482.484 172.076 479.171 175.393 479.171 179.484V199.027C479.171 203.118 482.484 206.435 486.572 206.435Z" fill="black"/>
<path d="M400.336 206.435H471.769C475.857 206.435 479.171 203.118 479.171 199.027V179.484C479.171 175.393 475.857 172.076 471.769 172.076H400.336C396.248 172.076 392.935 175.393 392.935 179.484V199.027C392.935 203.118 396.248 206.435 400.336 206.435Z" fill="#4FA3E3"/>
<path d="M314.1 206.435H385.533C389.621 206.435 392.935 203.118 392.935 199.027V179.484C392.935 175.393 389.621 172.076 385.533 172.076H314.1C310.012 172.076 306.699 175.393 306.699 179.484V199.027C306.699 203.118 310.012 206.435 314.1 206.435Z" fill="#4FA3E3"/>
<path opacity="0.1" d="M314.1 206.435H385.533C389.621 206.435 392.935 203.118 392.935 199.027V179.484C392.935 175.393 389.621 172.076 385.533 172.076H314.1C310.012 172.076 306.699 175.393 306.699 179.484V199.027C306.699 203.118 310.012 206.435 314.1 206.435Z" fill="black"/>
<path d="M227.864 206.435H299.298C303.385 206.435 306.699 203.118 306.699 199.027V179.484C306.699 175.393 303.385 172.076 299.298 172.076H227.864C223.776 172.076 220.463 175.393 220.463 179.484V199.027C220.463 203.118 223.776 206.435 227.864 206.435Z" fill="#4FA3E3"/>
<path d="M141.628 206.435H213.061C217.149 206.435 220.463 203.118 220.463 199.027V179.484C220.463 175.393 217.149 172.076 213.061 172.076H141.628C137.54 172.076 134.227 175.393 134.227 179.484V199.027C134.227 203.118 137.54 206.435 141.628 206.435Z" fill="#4FA3E3"/>
<path opacity="0.1" d="M141.628 206.435H213.061C217.149 206.435 220.463 203.118 220.463 199.027V179.484C220.463 175.393 217.149 172.076 213.061 172.076H141.628C137.54 172.076 134.227 175.393 134.227 179.484V199.027C134.227 203.118 137.54 206.435 141.628 206.435Z" fill="black"/>
<path d="M213.062 137.718H141.628C137.54 137.718 134.227 141.034 134.227 145.126V164.668C134.227 168.759 137.54 172.076 141.628 172.076H213.062C217.149 172.076 220.463 168.759 220.463 164.668V145.126C220.463 141.034 217.149 137.718 213.062 137.718Z" fill="#4FA3E3"/>
<path d="M299.297 137.718H227.864C223.776 137.718 220.463 141.034 220.463 145.126V164.668C220.463 168.759 223.776 172.076 227.864 172.076H299.297C303.385 172.076 306.699 168.759 306.699 164.668V145.126C306.699 141.034 303.385 137.718 299.297 137.718Z" fill="#4FA3E3"/>
<path opacity="0.1" d="M299.297 137.718H227.864C223.776 137.718 220.463 141.034 220.463 145.126V164.668C220.463 168.759 223.776 172.076 227.864 172.076H299.297C303.385 172.076 306.699 168.759 306.699 164.668V145.126C306.699 141.034 303.385 137.718 299.297 137.718Z" fill="black"/>
<path d="M385.533 137.718H314.1C310.012 137.718 306.699 141.034 306.699 145.126V164.668C306.699 168.759 310.012 172.076 314.1 172.076H385.533C389.621 172.076 392.935 168.759 392.935 164.668V145.126C392.935 141.034 389.621 137.718 385.533 137.718Z" fill="#4FA3E3"/>
<path d="M471.769 137.718H400.336C396.248 137.718 392.935 141.034 392.935 145.126V164.668C392.935 168.759 396.248 172.076 400.336 172.076H471.769C475.857 172.076 479.171 168.759 479.171 164.668V145.126C479.171 141.034 475.857 137.718 471.769 137.718Z" fill="#4FA3E3"/>
<path opacity="0.1" d="M471.769 137.718H400.336C396.248 137.718 392.935 141.034 392.935 145.126V164.668C392.935 168.759 396.248 172.076 400.336 172.076H471.769C475.857 172.076 479.171 168.759 479.171 164.668V145.126C479.171 141.034 475.857 137.718 471.769 137.718Z" fill="black"/>
<path d="M558.005 137.718H486.572C482.484 137.718 479.171 141.034 479.171 145.126V164.668C479.171 168.759 482.484 172.076 486.572 172.076H558.005C562.093 172.076 565.407 168.759 565.407 164.668V145.126C565.407 141.034 562.093 137.718 558.005 137.718Z" fill="#4FA3E3"/>
<path d="M644.241 137.718H572.808C568.72 137.718 565.406 141.034 565.406 145.126V164.668C565.406 168.759 568.72 172.076 572.808 172.076H644.241C648.329 172.076 651.643 168.759 651.643 164.668V145.126C651.643 141.034 648.329 137.718 644.241 137.718Z" fill="#4FA3E3"/>
<path opacity="0.1" d="M644.241 137.718H572.808C568.72 137.718 565.406 141.034 565.406 145.126V164.668C565.406 168.759 568.72 172.076 572.808 172.076H644.241C648.329 172.076 651.643 168.759 651.643 164.668V145.126C651.643 141.034 648.329 137.718 644.241 137.718Z" fill="black"/>
<path d="M644.241 23.2549H566.11C562.022 23.2549 558.709 26.5715 558.709 30.6629V52.87C558.709 56.9613 562.022 60.278 566.11 60.278H644.241C648.329 60.278 651.643 56.9613 651.643 52.87V30.6629C651.643 26.5715 648.329 23.2549 644.241 23.2549Z" fill="url(#paint0_linear)"/>
<path d="M569.459 58.9453L640.892 58.9453C644.98 58.9453 648.293 55.6287 648.293 51.5373V31.995C648.293 27.9037 644.98 24.5871 640.892 24.5871L569.459 24.5871C565.371 24.5871 562.057 27.9037 562.057 31.995V51.5373C562.057 55.6287 565.371 58.9453 569.459 58.9453Z" fill="#4FA3E3"/>
<path d="M486.572 137.718H558.005C562.093 137.718 565.406 134.401 565.406 130.31V110.768C565.406 106.676 562.093 103.36 558.005 103.36H486.572C482.484 103.36 479.171 106.676 479.171 110.768V130.31C479.171 134.401 482.484 137.718 486.572 137.718Z" fill="#4FA3E3"/>
<path opacity="0.1" d="M486.572 137.718H558.005C562.093 137.718 565.406 134.401 565.406 130.31V110.768C565.406 106.676 562.093 103.36 558.005 103.36H486.572C482.484 103.36 479.171 106.676 479.171 110.768V130.31C479.171 134.401 482.484 137.718 486.572 137.718Z" fill="black"/>
<path d="M400.336 137.718H471.769C475.857 137.718 479.171 134.401 479.171 130.31V110.768C479.171 106.676 475.857 103.36 471.769 103.36H400.336C396.248 103.36 392.935 106.676 392.935 110.768V130.31C392.935 134.401 396.248 137.718 400.336 137.718Z" fill="#4FA3E3"/>
<path d="M314.1 137.718H385.533C389.621 137.718 392.935 134.401 392.935 130.31V110.768C392.935 106.676 389.621 103.36 385.533 103.36H314.1C310.012 103.36 306.699 106.676 306.699 110.768V130.31C306.699 134.401 310.012 137.718 314.1 137.718Z" fill="#4FA3E3"/>
<path opacity="0.1" d="M314.1 137.718H385.533C389.621 137.718 392.935 134.401 392.935 130.31V110.768C392.935 106.676 389.621 103.36 385.533 103.36H314.1C310.012 103.36 306.699 106.676 306.699 110.768V130.31C306.699 134.401 310.012 137.718 314.1 137.718Z" fill="black"/>
<path d="M227.864 137.718H299.298C303.385 137.718 306.699 134.401 306.699 130.31V110.768C306.699 106.676 303.385 103.36 299.298 103.36H227.864C223.776 103.36 220.463 106.676 220.463 110.768V130.31C220.463 134.401 223.776 137.718 227.864 137.718Z" fill="#4FA3E3"/>
<path d="M141.628 137.718H213.061C217.149 137.718 220.463 134.401 220.463 130.31V110.768C220.463 106.676 217.149 103.36 213.061 103.36H141.628C137.54 103.36 134.227 106.676 134.227 110.768V130.31C134.227 134.401 137.54 137.718 141.628 137.718Z" fill="#4FA3E3"/>
<path opacity="0.1" d="M141.628 137.718H213.061C217.149 137.718 220.463 134.401 220.463 130.31V110.768C220.463 106.676 217.149 103.36 213.061 103.36H141.628C137.54 103.36 134.227 106.676 134.227 110.768V130.31C134.227 134.401 137.54 137.718 141.628 137.718Z" fill="black"/>
<g filter="url(#filter0_d)">
<path d="M417.784 544.151C648.52 544.151 835.568 501.567 835.568 449.037C835.568 396.507 648.52 353.923 417.784 353.923C187.048 353.923 0 396.507 0 449.037C0 501.567 187.048 544.151 417.784 544.151Z" fill="#F5F5F5"/>
</g>
<path d="M95.4038 406.349C95.4038 406.349 102.939 380.866 93.9972 362.103C90.2072 354.259 89.0643 345.395 90.7404 336.845C91.5676 332.791 92.7642 328.822 94.3154 324.987" stroke="#535461" stroke-width="2" stroke-miterlimit="10"/>
<path d="M88.7728 313.138C88.7728 316.264 94.4242 325.323 94.4242 325.323C94.4242 325.323 100.076 316.264 100.076 313.138C100.076 311.638 99.4802 310.199 98.4204 309.138C97.3605 308.077 95.9231 307.481 94.4242 307.481C92.9254 307.481 91.4879 308.077 90.4281 309.138C89.3682 310.199 88.7728 311.638 88.7728 313.138Z" fill="#4FA3E3"/>
<path d="M79.4291 330.443C81.1036 333.066 90.7905 337.591 90.7905 337.591C90.7905 337.591 90.6147 326.915 88.9151 324.292C88.0962 323.042 86.8162 322.167 85.3549 321.859C83.8936 321.55 82.3697 321.833 81.1163 322.646C79.8629 323.459 78.9818 324.735 78.6657 326.196C78.3495 327.657 78.624 329.184 79.4291 330.443Z" fill="#4FA3E3"/>
<path d="M79.8394 360.007C82.6274 361.415 93.2352 360.443 93.2352 360.443C93.2352 360.443 87.7011 351.317 84.913 349.909C83.5796 349.271 82.0492 349.181 80.6502 349.658C79.2511 350.136 78.0946 351.143 77.4288 352.464C76.7629 353.785 76.6406 355.314 77.0881 356.724C77.5356 358.135 78.5172 359.313 79.8226 360.007H79.8394Z" fill="#4FA3E3"/>
<path d="M85.181 382.307C87.6928 384.167 98.3257 385.005 98.3257 385.005C98.3257 385.005 94.4075 375.075 91.9041 373.214C90.6956 372.419 89.2285 372.118 87.8049 372.373C86.3813 372.628 85.1095 373.419 84.2512 374.584C83.393 375.749 83.0136 377.199 83.1913 378.636C83.3689 380.073 84.09 381.386 85.2062 382.307H85.181Z" fill="#4FA3E3"/>
<path d="M102.654 338.194C100.419 340.373 89.9868 342.627 89.9868 342.627C89.9868 342.627 92.5404 332.261 94.7758 330.057C95.308 329.539 95.9368 329.132 96.6264 328.857C97.316 328.582 98.0529 328.447 98.795 328.457C99.5371 328.468 100.27 328.624 100.951 328.918C101.633 329.212 102.25 329.638 102.767 330.17C103.285 330.703 103.692 331.332 103.966 332.023C104.241 332.713 104.376 333.45 104.366 334.193C104.355 334.936 104.199 335.669 103.905 336.351C103.611 337.034 103.186 337.651 102.654 338.169V338.194Z" fill="#4FA3E3"/>
<path d="M108.574 364.331C105.786 365.739 95.1777 364.767 95.1777 364.767C95.1777 364.767 100.712 355.641 103.5 354.233C104.829 353.633 106.337 353.57 107.711 354.058C109.085 354.545 110.218 355.545 110.873 356.848C111.528 358.151 111.654 359.658 111.226 361.052C110.797 362.447 109.847 363.621 108.574 364.331Z" fill="#4FA3E3"/>
<path d="M110.834 390.578C108.322 392.438 97.6895 393.276 97.6895 393.276C97.6895 393.276 101.608 383.346 104.111 381.485C105.32 380.69 106.787 380.389 108.21 380.644C109.634 380.899 110.906 381.69 111.764 382.855C112.622 384.02 113.002 385.47 112.824 386.907C112.646 388.344 111.925 389.657 110.809 390.578H110.834Z" fill="#4FA3E3"/>
<path d="M499.817 261.927C499.817 261.927 527.354 289.489 511.806 330.384C496.259 371.279 538.456 439.325 538.456 439.325C538.456 439.325 538.003 439.258 537.166 439.107C480.61 429.076 452.513 364.332 483.959 316.247C495.647 298.364 505.251 277.397 499.817 261.927Z" fill="#4FA3E3"/>
<path opacity="0.2" d="M499.817 261.927C499.817 261.927 527.354 289.489 511.806 330.384C496.259 371.279 538.456 439.325 538.456 439.325C538.456 439.325 538.003 439.258 537.166 439.107C480.61 429.076 452.513 364.332 483.959 316.247C495.647 298.364 505.251 277.397 499.817 261.927Z" fill="black"/>
<path d="M499.817 261.927C499.817 261.927 515.365 295.707 499.817 323.269C484.269 350.831 497.155 428.171 538.481 439.283" stroke="#535461" stroke-miterlimit="10"/>
<path d="M450.78 373.39C450.78 373.39 482.201 368.362 485.065 396.569C487.928 424.777 545.48 428.657 545.48 428.657L544.4 429.377C496.878 460.602 451.466 449.263 458.298 407.807C460.843 392.396 460.617 376.902 450.78 373.39Z" fill="#4FA3E3"/>
<path opacity="0.2" d="M450.78 373.39C450.78 373.39 482.201 368.362 485.065 396.569C487.928 424.777 545.48 428.657 545.48 428.657L544.4 429.377C496.878 460.602 451.466 449.263 458.298 407.807C460.843 392.396 460.617 376.902 450.78 373.39Z" fill="#F5F5F5"/>
<path d="M450.78 373.391C450.78 373.391 475.168 378.745 473.167 400.944C471.166 423.143 509.386 449.75 545.48 428.657" stroke="#535461" stroke-miterlimit="10"/>
<path d="M689.829 438.269C689.829 438.269 643.195 428.933 630.753 416.48C618.312 404.028 562.351 382.248 556.13 397.81C549.909 413.372 472.188 466.283 525.085 475.619C577.982 484.954 649.449 488.063 664.997 481.845C680.544 475.627 689.829 438.269 689.829 438.269Z" fill="#A8A8A8"/>
<path opacity="0.2" d="M525.085 469.836C577.94 479.172 649.449 482.281 664.996 476.063C676.835 471.32 685.09 448.551 688.314 437.95L689.871 438.277C689.871 438.277 680.544 475.619 664.996 481.853C649.449 488.088 577.923 484.962 525.085 475.627C509.83 472.929 505.468 466.602 507.109 458.59C508.34 463.811 513.69 467.825 525.085 469.836Z" fill="black"/>
<path d="M784.186 23.7577C783.355 21.6847 782.03 19.8464 780.327 18.4028C767.81 6.98921 747.574 10.4502 732.034 3.46959C728.451 1.86062 724.784 -0.368486 720.899 0.243259C715.474 1.08126 710.425 7.28251 705.695 4.53385L706.03 5.5646L705.695 5.38862L709.178 15.9978C710.517 20.0705 711.924 24.2605 714.519 27.6544C710.676 31.0085 707.735 35.2737 705.965 40.0596C704.194 44.8455 703.651 49.9994 704.385 55.0497C705.118 60.1 707.106 64.8856 710.165 68.9685C713.224 73.0514 717.257 76.3013 721.895 78.4209C722.063 78.7728 722.222 79.1332 722.381 79.4935L722.825 79.6779C723.855 82.0509 724.625 84.5293 725.119 87.0691C721.092 87.6305 714.067 92.0971 707.168 98.6671L693.371 98.2062C684.446 97.908 675.81 94.9684 668.555 89.7591L627.228 60.0518C624.285 60.3419 621.511 61.5697 619.317 63.5546C614.193 58.2081 609.839 52.6605 610.207 49.3085C610.207 49.3085 591.001 13.3329 584.018 31.3165C577.036 49.3001 597.113 68.1888 597.113 68.1888L609.847 84.7059C609.344 87.6018 609.026 90.5267 608.893 93.4631C624.608 111.455 679.598 127.729 679.598 127.729L688.171 128.148L688.222 128.567C687.694 130.819 687.435 133.126 687.451 135.439C687.451 135.774 687.451 136.118 687.451 136.47C687.451 136.821 687.451 136.93 687.451 137.157C687.887 165.85 691.813 253.64 691.813 253.64C692.575 253.296 693.371 252.986 694.174 252.693L693.563 260.494C693.563 260.494 656.9 265.631 629.841 275.914C602.781 286.196 601.91 298.188 601.91 298.188V403.995C594.183 407.967 581.984 413.213 575.721 410.389C568.923 407.355 565.197 409.902 564.519 412.559C564.39 413.085 564.39 413.634 564.519 414.16C564.576 414.396 564.664 414.624 564.779 414.838V414.889C564.903 415.11 565.058 415.313 565.239 415.492C567.86 418.065 624.6 440.331 637.694 436.903C638.099 436.797 638.496 436.662 638.883 436.501C639.008 436.451 639.117 436.383 639.243 436.325C639.368 436.266 639.729 436.099 639.955 435.965C640.181 435.83 640.214 435.789 640.34 435.705C640.465 435.621 640.733 435.445 640.917 435.302C641.102 435.16 641.16 435.085 641.277 434.976C641.395 434.867 641.621 434.682 641.771 434.515C641.922 434.347 641.989 434.263 642.098 434.138C642.207 434.012 642.399 433.802 642.533 433.618C642.667 433.434 642.717 433.342 642.818 433.207C642.918 433.073 643.086 432.822 643.203 432.621C643.32 432.42 643.362 432.336 643.437 432.185C643.513 432.034 643.672 431.758 643.781 431.531C643.89 431.305 643.915 431.238 643.973 431.087C644.032 430.936 644.183 430.61 644.275 430.367C644.367 430.124 644.375 430.073 644.434 429.923C644.492 429.772 644.618 429.395 644.693 429.085C644.693 428.942 644.769 428.8 644.811 428.657C644.886 428.364 644.97 428.079 645.037 427.819C645.037 427.685 645.095 427.551 645.12 427.417C645.187 427.098 645.254 426.78 645.305 426.462C645.305 426.344 645.305 426.219 645.363 426.101C645.422 425.758 645.472 425.406 645.514 425.062V424.76C645.556 424.383 645.598 424.006 645.631 423.629V423.394C645.665 422.987 645.69 422.579 645.706 422.171V422.003C645.706 421.568 645.706 421.132 645.706 420.696V420.612C645.691 415.503 645.129 410.409 644.032 405.419L647.322 315.308C664.468 315.575 681.616 314.943 698.695 313.414L700.571 356.421C700.571 356.421 700.571 384.687 710.174 397.534C718.396 408.528 727.89 457.158 730.452 470.96C726.927 477.664 720.179 486.044 708.424 485.759C708.424 485.759 686.313 483.848 687.56 489.949C687.595 490.109 687.643 490.266 687.702 490.418C687.772 490.594 687.853 490.764 687.945 490.929C688.037 491.089 688.138 491.248 688.255 491.415L688.322 491.516C688.448 491.692 688.59 491.876 688.749 492.069V492.111C688.9 492.287 689.059 492.463 689.235 492.639L689.385 492.79C689.586 492.991 689.787 493.192 690.022 493.401C701.366 503.684 767.709 505.393 767.709 505.393V505.159C767.709 505.092 767.709 505.008 767.709 504.916C767.709 501.941 767.274 486.337 763.306 474.588H764.226C764.226 474.588 754.623 388.072 746.77 377.799C746.77 377.799 744.685 332.177 749.391 303.593L750.228 303.275C772.23 295.045 773.796 274.782 771.527 259.899C775.713 261.24 778.158 262.154 778.158 262.154C778.158 262.154 778.083 261.508 777.941 260.36L778.158 260.444C778.158 260.444 777.74 257.721 777.045 253.48C775.471 241.807 772.423 221.41 769.175 211.781C768.647 209.661 768.145 207.851 767.684 206.485C765.81 200.699 764.522 194.738 763.841 188.694C762.952 180.859 762.502 172.981 762.493 165.096C762.565 154.561 763.37 144.043 764.905 133.62C766.236 124.52 767.416 114.162 767.333 106.93C767.425 104.404 767.248 101.876 766.805 99.3878C765.641 94.0497 760.492 90.5803 755.142 88.368C754.799 88.2255 754.447 88.1082 754.096 87.9741C754.23 85.9545 754.397 83.6584 754.615 81.2701C755.256 81.7147 755.981 82.0243 756.745 82.1798C757.509 82.3354 758.297 82.3338 759.061 82.1751C761.363 81.6723 763.012 79.7533 764.478 77.9851C772.214 68.4737 780.159 58.5601 783.131 46.7442C784.332 41.4676 784.894 36.0655 784.806 30.6545C784.806 30.3584 784.806 30.0623 784.806 29.7662C784.949 27.7426 784.739 25.7094 784.186 23.7577Z" fill="url(#paint1_linear)"/>
<path d="M713.749 70.1244C713.749 70.1244 725.47 87.7225 722.959 96.1026C720.447 104.483 750.588 99.4546 750.588 99.4546C750.588 99.4546 751.425 66.7724 757.286 59.2303C763.146 51.6883 713.749 70.1244 713.749 70.1244Z" fill="#F7C4A7"/>
<path d="M636.304 81.4376C636.304 81.4376 612.024 61.3255 612.861 53.7834C612.861 53.7834 594.442 18.5872 587.744 36.1853C581.046 53.7834 600.303 72.2195 600.303 72.2195L623.745 103.226L636.304 81.4376Z" fill="#F7C4A7"/>
<path d="M611.605 396.947C611.605 396.947 589 411.193 579.79 407.003C570.581 402.813 567.232 409.517 569.743 412.031C572.255 414.545 626.676 436.333 639.234 432.981C651.793 429.629 645.405 402.176 645.405 402.176L611.605 396.947Z" fill="#535461"/>
<path d="M731.331 458.121C731.331 458.121 725.889 481.166 707.051 480.747C707.051 480.747 678.585 478.233 689.469 488.289C700.353 498.345 763.984 500.021 763.984 500.021C763.984 500.021 763.984 465.663 752.262 458.121C740.541 450.579 731.331 458.121 731.331 458.121Z" fill="#535461"/>
<path d="M697.004 295.548L699.516 354.208C699.516 354.208 699.516 381.863 708.726 394.433C717.935 407.003 728.82 469.853 728.82 469.853H760.635C760.635 469.853 751.425 385.215 743.89 375.159C743.89 375.159 740.541 300.576 752.262 283.816L697.004 295.548Z" fill="#0A0908"/>
<path opacity="0.1" d="M697.004 295.548L699.516 354.208C699.516 354.208 699.516 381.863 708.726 394.433C717.935 407.003 728.82 469.853 728.82 469.853H760.635C760.635 469.853 751.425 385.215 743.89 375.159C743.89 375.159 740.541 300.576 752.262 283.816L697.004 295.548Z" fill="black"/>
<path d="M763.147 242.754C763.147 242.754 782.403 288.844 747.239 302.252C712.075 315.66 648.444 313.984 648.444 313.984L645.095 411.193C645.095 411.193 605.745 416.221 604.908 403.651V297.224C604.908 297.224 605.745 285.492 631.699 275.436C657.654 265.38 692.818 260.352 692.818 260.352L694.493 238.563L763.147 242.754Z" fill="#0A0908"/>
<path opacity="0.1" d="M732.294 90.9154C738.982 90.1743 745.748 91.1311 751.969 93.6976C757.102 95.8596 762.016 99.2536 763.155 104.474C764.478 110.659 763.013 124.528 761.33 136.268C758.634 154.667 758.291 173.334 760.308 191.82C761.146 199.521 762.359 206.233 763.992 209.225C769.016 218.443 774.039 262.02 774.039 262.02C774.039 262.02 718.781 241.069 691.152 253.639C691.152 253.639 687.384 167.744 686.966 139.671C686.639 117.933 714.176 93.1613 723.386 92.3233C728.778 91.8372 726.927 91.4769 732.294 90.9154Z" fill="black"/>
<path d="M732.294 89.2391C738.982 88.498 745.748 89.4549 751.969 92.0213C757.102 94.1834 762.016 97.5773 763.155 102.798C764.478 108.983 763.013 122.852 761.33 134.592C758.634 152.991 758.291 171.658 760.308 190.143C760.96 196.053 762.194 201.883 763.992 207.549C767.76 218.862 774.039 260.343 774.039 260.343C774.039 260.343 718.781 239.393 691.152 251.963C691.152 251.963 687.384 166.068 686.966 137.994C686.639 116.256 714.176 91.485 723.386 90.647C728.778 90.1609 726.927 89.8006 732.294 89.2391Z" fill="#EB5757"/>
<path opacity="0.1" d="M747.239 135.489L687.795 132.137C687.795 132.137 684.01 102.966 692.592 103.267L751.425 105.321C751.425 105.321 763.984 120.405 747.239 135.489Z" fill="black"/>
<path d="M747.239 133.813L679.422 130.461C679.422 130.461 626.676 114.539 611.605 96.9405C611.605 96.9405 612.443 65.9343 629.188 64.2583L668.797 93.3287C675.721 98.4112 684.012 101.29 692.592 101.591L751.425 103.645C751.425 103.645 763.984 118.729 747.239 133.813Z" fill="#EB5757"/>
<path opacity="0.1" d="M750.169 73.8953C751.165 65.951 754.766 63.3113 757.286 60.0682C763.146 52.5262 713.749 70.9623 713.749 70.9623C716.303 74.8882 718.542 79.0101 720.447 83.2894C724.385 85.1055 728.67 86.0461 733.006 86.0464C740.256 86.0464 744.961 78.1943 750.169 73.8953Z" fill="black"/>
<path d="M733.006 85.2085C749.652 85.2085 763.146 71.7017 763.146 55.0403C763.146 38.3788 749.652 24.8721 733.006 24.8721C716.359 24.8721 702.865 38.3788 702.865 55.0403C702.865 71.7017 716.359 85.2085 733.006 85.2085Z" fill="#F7C4A7"/>
<path opacity="0.1" d="M713.975 33.8972C710.768 30.3859 709.22 25.7098 707.763 21.1762L704.414 10.7933C708.952 13.4749 713.791 7.4413 718.999 6.6033C722.724 6.00831 726.249 8.18714 729.682 9.75421C744.585 16.5756 764.009 13.19 775.998 24.3606C777.637 25.7811 778.907 27.5784 779.699 29.5982C780.252 31.5015 780.478 33.485 780.368 35.4642C780.466 40.7535 779.941 46.0359 778.803 51.202C775.956 62.7581 768.337 72.4622 760.911 81.7641C759.504 83.5323 757.922 85.4094 755.712 85.9038C751.4 86.8675 748.068 82.2082 746.402 78.1187C744.194 72.6998 742.566 67.0621 741.545 61.3C741.11 58.8614 740.767 56.3473 739.553 54.1937C736.957 49.593 730.561 45.2354 726.676 41.6655C722.791 38.0956 717.542 37.7939 713.975 33.8972Z" fill="black"/>
<path d="M713.975 33.0593C710.768 29.548 709.22 24.8719 707.763 20.3383L704.414 9.95544C708.952 12.6371 713.791 6.60341 718.999 5.76541C722.724 5.17042 726.249 7.34925 729.682 8.91632C744.585 15.7377 764.009 12.3521 775.998 23.5228C777.637 24.9432 778.907 26.7405 779.699 28.7603C780.252 30.6636 780.478 32.6471 780.368 34.6263C780.466 39.9156 779.941 45.198 778.803 50.3641C775.956 61.9202 768.337 71.6243 760.911 80.9262C759.504 82.6944 757.922 84.5715 755.712 85.0659C751.4 86.0296 748.068 81.3703 746.402 77.2809C744.194 71.8619 742.566 66.2242 741.545 60.4621C741.11 58.0235 740.767 55.5095 739.553 53.3558C736.957 48.7551 730.561 44.3975 726.676 40.8276C722.791 37.2577 717.542 36.956 713.975 33.0593Z" fill="#F0D942"/>
<path d="M740.96 63.8394C742.347 63.8394 743.471 61.4007 743.471 58.3924C743.471 55.384 742.347 52.9453 740.96 52.9453C739.572 52.9453 738.448 55.384 738.448 58.3924C738.448 61.4007 739.572 63.8394 740.96 63.8394Z" fill="#F7C4A7"/>
<path opacity="0.1" d="M756.03 203.786C756.03 203.786 754.355 208.814 745.983 207.976C737.611 207.138 713.331 205.462 713.331 207.976" fill="black"/>
<path opacity="0.5" d="M689.469 487.451C687.962 486.06 687.209 484.937 687.033 483.957C686.815 485.046 687.485 486.471 689.469 488.29C700.353 498.346 763.984 500.022 763.984 500.022C763.984 500.022 763.984 499.728 763.984 499.184C763.573 499.175 700.32 497.474 689.469 487.451Z" fill="white"/>
<path opacity="0.5" d="M639.235 431.305C626.676 434.657 572.255 412.869 569.743 410.355C569.409 410.015 569.169 409.593 569.049 409.131C568.903 409.633 568.891 410.165 569.013 410.673C569.135 411.181 569.387 411.649 569.743 412.031C572.255 414.545 626.676 436.333 639.235 432.981C645.698 431.255 647.138 423.151 647.021 415.685C646.895 422.64 645.213 429.696 639.235 431.305Z" fill="white"/>
<path d="M420.371 422.288C420.704 422.288 421.024 422.156 421.259 421.92C421.495 421.684 421.627 421.364 421.627 421.031C421.627 420.698 421.495 420.378 421.259 420.142C421.024 419.906 420.704 419.774 420.371 419.774C420.038 419.774 419.719 419.906 419.483 420.142C419.248 420.378 419.115 420.698 419.115 421.031C419.115 421.364 419.248 421.684 419.483 421.92C419.719 422.156 420.038 422.288 420.371 422.288Z" fill="#67647E"/>
<path d="M76.5992 400.056C76.5992 400.056 107.845 399.092 117.256 392.379C126.666 385.667 165.313 377.656 167.649 388.416C169.985 399.176 214.61 441.948 179.304 442.266C143.997 442.584 97.3461 436.769 87.9439 431.037C78.5416 425.305 76.5992 400.056 76.5992 400.056Z" fill="#A8A8A8"/>
<path opacity="0.2" d="M179.965 438.486C144.692 438.771 98.0075 432.989 88.6053 427.257C81.4469 422.891 78.5584 407.237 77.6458 400.014H76.5992C76.5992 400.014 78.5751 425.238 87.9774 430.961C97.3796 436.685 144.064 442.517 179.304 442.266C189.485 442.182 193.001 438.562 192.809 433.19C191.427 436.4 187.542 438.428 179.965 438.486Z" fill="black"/>
<path d="M792.165 480.462H863.599C867.686 480.462 871 477.146 871 473.054V453.512C871 449.421 867.686 446.104 863.599 446.104H792.165C788.078 446.104 784.764 449.421 784.764 453.512V473.054C784.764 477.146 788.078 480.462 792.165 480.462Z" fill="#4FA3E3"/>
<path opacity="0.1" d="M792.165 480.462H863.599C867.686 480.462 871 477.146 871 473.054V453.512C871 449.421 867.686 446.104 863.599 446.104H792.165C788.078 446.104 784.764 449.421 784.764 453.512V473.054C784.764 477.146 788.078 480.462 792.165 480.462Z" fill="black"/>
<path d="M863.599 413.422H792.165C788.078 413.422 784.764 416.739 784.764 420.83V440.372C784.764 444.464 788.078 447.78 792.165 447.78H863.599C867.687 447.78 871 444.464 871 440.372V420.83C871 416.739 867.687 413.422 863.599 413.422Z" fill="#4FA3E3"/>
<path d="M792.165 413.422H863.599C867.686 413.422 871 410.105 871 406.014V386.472C871 382.38 867.686 379.064 863.599 379.064H792.165C788.078 379.064 784.764 382.38 784.764 386.472V406.014C784.764 410.105 788.078 413.422 792.165 413.422Z" fill="#4FA3E3"/>
<path opacity="0.1" d="M792.165 413.422H863.599C867.686 413.422 871 410.105 871 406.014V386.472C871 382.38 867.686 379.064 863.599 379.064H792.165C788.078 379.064 784.764 382.38 784.764 386.472V406.014C784.764 410.105 788.078 413.422 792.165 413.422Z" fill="black"/>
<path d="M863.599 344.706H792.165C788.078 344.706 784.764 348.022 784.764 352.114V371.656C784.764 375.747 788.078 379.064 792.165 379.064H863.599C867.687 379.064 871 375.747 871 371.656V352.114C871 348.022 867.687 344.706 863.599 344.706Z" fill="#4FA3E3"/>
</g>
<defs>
<filter id="filter0_d" x="-20" y="335.923" width="875.568" height="230.227" filterUnits="userSpaceOnUse" color-interpolation-filters="sRGB">
<feFlood flood-opacity="0" result="BackgroundImageFix"/>
<feColorMatrix in="SourceAlpha" type="matrix" values="0 0 0 0 0 0 0 0 0 0 0 0 0 0 0 0 0 0 127 0"/>
<feOffset dy="2"/>
<feGaussianBlur stdDeviation="10"/>
<feColorMatrix type="matrix" values="0 0 0 0 0 0 0 0 0 0 0 0 0 0 0 0 0 0 0.05 0"/>
<feBlend mode="normal" in2="BackgroundImageFix" result="effect1_dropShadow"/>
<feBlend mode="normal" in="SourceGraphic" in2="effect1_dropShadow" result="shape"/>
</filter>
<linearGradient id="paint0_linear" x1="605.176" y1="60.278" x2="605.176" y2="23.2549" gradientUnits="userSpaceOnUse">
<stop stop-color="#808080" stop-opacity="0.25"/>
<stop offset="0.54" stop-color="#808080" stop-opacity="0.12"/>
<stop offset="1" stop-color="#808080" stop-opacity="0.1"/>
</linearGradient>
<linearGradient id="paint1_linear" x1="195788" y1="368037" x2="195788" y2="63369.1" gradientUnits="userSpaceOnUse">
<stop stop-color="#808080" stop-opacity="0.25"/>
<stop offset="0.54" stop-color="#808080" stop-opacity="0.12"/>
<stop offset="1" stop-color="#808080" stop-opacity="0.1"/>
</linearGradient>
<clipPath id="clip0">
<rect width="871" height="544" fill="white" transform="translate(0 0.150879)"/>
</clipPath>
</defs>
</svg>
